<?xml version="1.0" encoding="UTF-8" standalone="no"?>
<svg
   class="c-logo__image"
   viewBox="0 0 266 115"
   version="1.1"
   id="svg2"
   sodipodi:docname="logo.svg"
   inkscape:version="1.3.2 (091e20ef0f, 2023-11-25, custom)"
   inkscape:export-filename="logo.png"
   inkscape:export-xdpi="90.230003"
   inkscape:export-ydpi="90.230003"
   xmlns:inkscape="http://www.inkscape.org/namespaces/inkscape"
   xmlns:sodipodi="http://sodipodi.sourceforge.net/DTD/sodipodi-0.dtd"
   xmlns="http://www.w3.org/2000/svg"
   xmlns:svg="http://www.w3.org/2000/svg">
  <defs
     id="defs2" />
  <sodipodi:namedview
     id="namedview2"
     pagecolor="#ffffff"
     bordercolor="#000000"
     borderopacity="0.25"
     inkscape:showpageshadow="2"
     inkscape:pageopacity="0.0"
     inkscape:pagecheckerboard="0"
     inkscape:deskcolor="#d1d1d1"
     inkscape:zoom="4.3977922"
     inkscape:cx="140.29767"
     inkscape:cy="57.64256"
     inkscape:window-width="1920"
     inkscape:window-height="1015"
     inkscape:window-x="0"
     inkscape:window-y="0"
     inkscape:window-maximized="1"
     inkscape:current-layer="svg2" />
  <path
     fill="#003a7d"
     d="M0 0h266v115H0z"
     id="path1" />
  <path
     fill="#f39b07"
     d="M 27,59.37 V 32.8 h 9.85 v 10.89 h 5.91 V 32.79 H 52.6 V 59.37 H 42.76 V 48.6 h -5.91 v 10.77 z m 98.31,0 V 45 l 8.45,15.09 9.1,-14.69 v 13.97 h 9.68 V 32.8 h -7.76 l -7.65,12.34 -7.64,-12.34 h -8.4 v 26.57 z m 67.46,0 V 46.56 l 11.35,12.81 h 6.66 V 32.8 h -4.17 V 46.37 L 193.46,32.8 h -6.07 v 26.56 h 5.38 z m 29,0 V 46.55 l 11.36,12.81 h 6.66 V 32.8 h -4.17 V 46.37 L 222.47,32.8 h -6.08 V 59.37 Z M 99,59.37 V 47.55 l 7.65,11.82 h 11.7 l -8.6,-12.12 A 7.38,7.38 0 0 0 107.69,32.81 H 88.91 v 26.56 z m 0,-14 V 37 h 5.91 v 8.42 z m 56.05,14 h 4.62 l 1.52,-3.68 h 11 l 1.48,3.7 h 11 l -10,-26.57 h -9 z m 15.5,-8 h -7.79 l 4,-9.92 z M 60.58,32.72 a 2.71,2.71 0 1 0 -2.71,2.72 2.72,2.72 0 0 0 2.71,-2.72 m 26,0 a 2.71,2.71 0 1 0 -2.71,2.72 2.72,2.72 0 0 0 2.71,-2.72 m -1.77,13.7 A 13.93,13.93 0 1 1 70.88,32.31 13.93,13.93 0 0 1 84.81,46.39 m -11,9.12 V 36.89 h -6 v 18.62 z"
     id="path2" />
  <text
     xml:space="preserve"
     style="font-style:normal;font-variant:normal;font-weight:bold;font-stretch:normal;font-size:24.4983px;font-family:'Liberation Sans';-inkscape-font-specification:'Liberation Sans Bold';fill:#ffffff;stroke-width:2.04155"
     x="26.711458"
     y="85.519974"
     id="text2"
     transform="scale(1.0231554,0.97736861)"><tspan
       sodipodi:role="line"
       id="tspan2"
       x="26.711458"
       y="85.519974"
       style="font-style:normal;font-variant:normal;font-weight:bold;font-stretch:normal;font-family:'Liberation Sans';-inkscape-font-specification:'Liberation Sans Bold';stroke-width:2.04155">www.tor-kaiser.de</tspan></text>
</svg>
